<svg width="85" height="24" viewBox="0 0 85 24" fill="none" xmlns="http://www.w3.org/2000/svg">
<g clip-path="url(#clip0)">
<path d="M10.097 2.31966L0.5214 18.041C-0.957276 20.4672 0.891069 23.5038 3.84842 23.5038H22.9997C25.957 23.5038 27.8054 20.471 26.3267 18.041L16.7511 2.31966C15.2724 -0.106552 11.5757 -0.106552 10.097 2.31966Z" fill="#0B70FD"/>
<path d="M52.533 23.4847H36.526C34.2921 23.4847 32.4795 21.7668 32.4795 19.6495V4.47438C32.4795 2.3571 34.2921 0.63916 36.526 0.63916H52.533C54.767 0.63916 56.5795 2.3571 56.5795 4.47438V19.6457C56.5835 21.7668 54.7709 23.4847 52.533 23.4847Z" fill="#0B70FD"/>
<path d="M9.55971 13.1851C8.99527 13.1851 8.53418 12.7518 8.53418 12.2131V11.388C8.53418 10.853 8.9913 10.416 9.55971 10.416C10.1242 10.416 10.5852 10.8493 10.5852 11.388V12.2131C10.5852 12.7518 10.1242 13.1851 9.55971 13.1851Z" fill="#0B70FD"/>
<path d="M12.859 13.1851C12.2946 13.1851 11.8335 12.7518 11.8335 12.2131V11.388C11.8335 10.853 12.2906 10.416 12.859 10.416C13.4235 10.416 13.8846 10.8493 13.8846 11.388V12.2131C13.8846 12.7518 13.4235 13.1851 12.859 13.1851Z" fill="#0B70FD"/>
<path d="M42.4005 19.7778C41.8361 19.7778 41.375 19.3446 41.375 18.8058V17.9808C41.375 17.4458 41.8321 17.0088 42.4005 17.0088C42.965 17.0088 43.4261 17.442 43.4261 17.9808V18.8058C43.4261 19.3408 42.969 19.7778 42.4005 19.7778Z" fill="#0B70FD"/>
<path d="M45.7038 19.7778C45.1393 19.7778 44.6782 19.3446 44.6782 18.8058V17.9808C44.6782 17.4458 45.1353 17.0088 45.7038 17.0088C46.2682 17.0088 46.7293 17.442 46.7293 17.9808V18.8058C46.7253 19.3408 46.2682 19.7778 45.7038 19.7778Z" fill="#0B70FD"/>
<path d="M82.4405 15.8676C82.7664 15.7395 84.9884 15.0274 84.9884 12.1416C84.9884 8.93554 82.6154 8.32899 82.4246 8.28755C82.6988 8.21973 84.9844 7.63579 84.9844 4.54651C84.9844 0.281814 79.0419 0.639717 79.0419 0.639717H64.756C64.756 0.639717 63.5953 0.553067 62.9196 1.16339C62.1842 1.83022 62.3074 2.64398 62.3074 2.64398V21.4923C62.3074 21.4923 62.1365 22.291 62.8242 22.988C63.4363 23.6058 64.8236 23.4928 64.8236 23.4928H79.1095C79.1095 23.4928 84.9129 23.8319 84.9963 19.7405C85.0599 16.7265 82.7823 15.958 82.4405 15.8676Z" fill="#0B70FD"/>
<path d="M71.4293 8.26514C70.8649 8.26514 70.4038 7.83189 70.4038 7.29315V6.46808C70.4038 5.93311 70.8609 5.49609 71.4293 5.49609C71.9938 5.49609 72.4549 5.92935 72.4549 6.46808V7.29315C72.4549 7.83189 71.9977 8.26514 71.4293 8.26514Z" fill="#0B70FD"/>
<path d="M74.7331 8.26514C74.1686 8.26514 73.7075 7.83189 73.7075 7.29315V6.46808C73.7075 5.93311 74.1646 5.49609 74.7331 5.49609C75.2975 5.49609 75.7586 5.92935 75.7586 6.46808V7.29315C75.7586 7.83189 75.2975 8.26514 74.7331 8.26514Z" fill="#0B70FD"/>
</g>
<defs>
<clipPath id="clip0">
<rect width="85" height="23" fill="white" transform="translate(0 0.5)"/>
</clipPath>
</defs>
</svg>
