<svg width="28" height="28" viewBox="0 0 28 28" fill="none" xmlns="http://www.w3.org/2000/svg">
<path d="M5.83301 7H22.1663V20.4166C22.1663 22.6718 20.3381 24.5 18.083 24.5H9.91633C7.66118 24.5 5.83301 22.6718 5.83301 20.4166V7Z" fill="#D0D3DD"/>
<path d="M4.6665 5.44436C4.6665 4.69264 5.27589 4.08325 6.02761 4.08325H21.972C22.7237 4.08325 23.3331 4.69264 23.3331 5.44436V6.99991H4.6665V5.44436Z" fill="#697382"/>
<rect x="10.208" y="9.91675" width="2.33333" height="10.5" fill="#8A929E"/>
<rect x="15.458" y="9.91675" width="2.33333" height="10.5" fill="#8A929E"/>
<path d="M11.6663 3.03335C11.9063 2.60124 12.3618 2.33325 12.8561 2.33325H15.1432C15.6375 2.33325 16.093 2.60124 16.333 3.03335L16.9163 4.08325H11.083L11.6663 3.03335Z" fill="#697382"/>
</svg>
