<svg width="17" height="19" viewBox="0 0 17 19" fill="none" xmlns="http://www.w3.org/2000/svg">
<path d="M16.6516 0.208979C17.0549 0.54402 16.8501 1.13622 16.8501 1.13622L13.0186 18.2777C13.0186 18.2777 12.9177 18.7918 12.4974 18.8326C12.041 18.8755 11.8497 18.4061 11.8497 18.4061L9.12321 11.6633C9.12321 11.6633 9.02237 11.3636 8.76448 11.1132C8.5066 10.8628 8.04495 10.7908 8.04495 10.7908L0.564571 9.6967C0.564571 9.6967 0.155922 9.60358 0.113735 9.14084C0.065398 8.62013 0.724297 8.30589 0.724297 8.30589L15.6423 0.1171C15.6423 0.1171 16.2875 -0.0991532 16.6516 0.208979Z" fill="#0B70FD"/>
</svg>
