<svg width="24" height="24" viewBox="0 0 24 24" fill="none" xmlns="http://www.w3.org/2000/svg">
<rect x="3" y="11" width="15" height="3" rx="1.28571" fill="#8A929E"/>
<path d="M3 6.28571C3 5.57563 3.57563 5 4.28571 5H19.7143C20.4244 5 21 5.57563 21 6.28571V6.71429C21 7.42437 20.4244 8 19.7143 8H4.28571C3.57563 8 3 7.42437 3 6.71429V6.28571Z" fill="#8A929E"/>
<path d="M3 18.2857C3 17.5756 3.57563 17 4.28571 17H18.7143C19.4244 17 20 17.5756 20 18.2857V18.7143C20 19.4244 19.4244 20 18.7143 20H4.28571C3.57563 20 3 19.4244 3 18.7143V18.2857Z" fill="#8A929E"/>
</svg>
