<svg width="23" height="22" viewBox="0 0 23 22" fill="none" xmlns="http://www.w3.org/2000/svg">
<circle cx="15.5" cy="7" r="3.5" fill="#C1DBFF"/>
<circle cx="10" cy="7" r="3.5" fill="#0B70FD"/>
<path d="M10 16.5C10 13.7386 12.2386 11.5 15 11.5H17.5C20.2614 11.5 22.5 13.7386 22.5 16.5V17C22.5 18.3807 21.3807 19.5 20 19.5H12.5C11.1193 19.5 10 18.3807 10 17V16.5Z" fill="#C1DBFF"/>
<path d="M3.5 16.5C3.5 13.7386 5.73858 11.5 8.5 11.5H11.5C14.2614 11.5 16.5 13.7386 16.5 16.5V17C16.5 18.3807 15.3807 19.5 14 19.5H6C4.61929 19.5 3.5 18.3807 3.5 17V16.5Z" fill="#0B70FD"/>
</svg>
