<svg width="28" height="28" viewBox="0 0 28 28" fill="none" xmlns="http://www.w3.org/2000/svg">
<g clip-path="url(#clip0)">
<rect x="3.7915" y="4.03833" width="20.4615" height="20.4615" fill="#D0D3DD"/>
<path d="M3.7915 25.7566L15.1109 14.4372C16.4427 13.1054 18.602 13.1054 19.9338 14.4372L31.2532 25.7566L17.5224 39.4874L3.7915 25.7566Z" fill="#ACB3C1"/>
<path d="M-5.10059 24.4177L6.9514 12.3657C8.28319 11.034 10.4424 11.034 11.7742 12.3657L23.8262 24.4177L9.36281 38.8811L-5.10059 24.4177Z" fill="#8A929E"/>
</g>
<rect x="19.7402" y="1.75" width="3.17017" height="10.5672" fill="#697382"/>
<rect x="16.0415" y="8.61841" width="3.17017" height="10.5672" transform="rotate(-90 16.0415 8.61841)" fill="#697382"/>
<defs>
<clipPath id="clip0">
<path d="M3.7915 8.12166C3.7915 5.8665 5.61967 4.03833 7.87484 4.03833H18.4197C21.6414 4.03833 24.253 6.65 24.253 9.87166V20.4165C24.253 22.6717 22.4249 24.4999 20.1697 24.4999H7.87484C5.61967 24.4999 3.7915 22.6717 3.7915 20.4165V8.12166Z" fill="white"/>
</clipPath>
</defs>
</svg>
